# procedural_chamber_mlx_v1 1.0.0
v -3.266956329 4.918769836 0.000000005
v 3.349419594 5.012141705 0.000000005
v -3.024407148 -4.265190601 0.000000005
v 2.314284801 -3.710359097 0.000000004
v 0.469149619 -2.366423368 4.700959206
v -1.283039927 3.174868107 6.672633171
v -0.804684281 -2.421084642 -4.971477032
v 0.610662520 2.647981644 -5.295288086
v 3.693406105 -0.646045089 -2.595384836
v 5.517158985 1.328606844 3.928139448
v -3.555600643 0.600283682 -2.496008873
v -4.477853775 -0.729015708 3.140370607
v -4.398148537 1.720937848 1.751709819
v -2.867245674 0.665637732 4.624706745
v -2.191618681 3.303395748 2.729379416
v 1.025733709 4.771440506 3.360144615
v -0.151204199 4.538599491 0.000000005
v 1.663487554 3.281826496 -2.533195257
v -1.149127007 4.025424004 -2.882182121
v -1.702607155 1.451514602 -3.515247822
v -3.468145370 2.184807777 -1.520304918
v -4.711900711 0.045367289 0.000000005
v 2.263489008 2.697307110 5.532371998
v 4.084483147 3.298941135 1.947353125
v -2.029980659 -1.697891831 4.157987118
v -0.000000021 0.000000054 5.581062317
v -3.556062460 -1.460142612 -1.425803542
v -3.691585779 -2.274151325 1.608169198
v 0.000000009 0.000000047 -4.638416767
v -2.425119638 -0.649184048 -3.944411039
v 3.958216667 2.087137461 -1.659698009
v 2.277765751 0.782102883 -3.783824444
v 3.564107418 -1.934839368 1.504160166
v 2.956964731 -0.893052816 4.853128910
v 1.396219492 -2.794527531 2.150783539
v -1.018204927 -3.155467510 2.282813787
v -0.104848571 -3.899118900 0.000000004
v -2.099458694 -3.208039045 -2.639645815
v 0.768762589 -3.653764009 -2.570662022
v 1.855770826 -1.862602115 -4.131039619
v 2.640943050 -1.973423600 -1.222790837
v 4.698980331 -0.020498475 0.000000005
v -4.225742817 3.485689878 0.950021386
v -3.687726021 2.799086332 2.537972212
v -2.754275799 3.920136452 1.396716833
v -3.835092545 -0.193444759 4.018517494
v -3.741190910 1.140200853 3.243692636
v -4.600746632 0.370760471 2.565781116
v -1.789106011 3.192362547 4.511762619
v -2.525051832 1.975326419 3.567667961
v -1.786270499 1.606796622 4.884287357
v -1.219575524 3.974138021 1.360953927
v -1.625254393 4.422305107 0.000000005
v -0.224579662 4.156223774 5.131617069
v -0.797986209 4.170446396 3.160371304
v 1.730076909 5.118633270 0.000000006
v 0.457462519 4.857583523 1.597331047
v 2.271032333 5.051998138 1.614780426
v -0.611459970 4.305243492 -1.423611999
v -2.210403442 4.825070858 -1.547232628
v 2.441318035 4.083315372 -1.386946440
v 0.775317013 3.858040810 -1.288312435
v -0.204556808 3.357222557 -4.146742821
v 0.362068266 3.693113565 -2.761958838
v 1.160440207 2.913296223 -3.866210699
v -2.476810455 3.036332130 -2.148040771
v -3.570100546 3.454781532 -0.861598849
v -0.663551807 1.916187882 -4.122376919
v -1.494917035 2.515177965 -3.256071568
v -3.770970821 1.421494722 -2.240218163
v -2.336446047 1.734319091 -2.413256645
v -2.892207861 1.130485058 -3.249684572
v -4.047653198 2.050621748 0.000000005
v -3.919147730 0.402731299 -1.363556147
v -3.939559698 1.130554676 -0.759445906
v -4.232104778 0.797250986 0.797982216
v -4.772099018 -0.395827144 1.657290816
v 2.687275648 4.180345535 2.724287271
v 3.703282356 4.239537716 0.976269722
v 0.452281773 3.054800272 6.277814865
v 1.546125174 3.817040682 4.583013535
v 4.736432552 2.347630739 2.938589811
v 3.174876451 3.096364737 3.678030252
v 3.977581978 2.120059013 4.716884613
v -1.397874355 0.329863191 5.045925140
v -0.590366542 1.469505072 6.171838284
v -3.253148794 -1.189648867 3.624908686
v -2.507735729 -0.652298689 4.695737839
v 0.311045557 -1.301406145 5.214691162
v -1.034021258 -0.994611025 5.040526867
v -0.740354002 -2.099214792 4.525132656
v -4.169486046 -1.070810556 0.797658086
v -4.206059933 -1.524488926 2.486929417
v -3.728491545 -0.349389583 -2.081695795
v -3.979438066 -0.661569476 -0.747491479
v -3.322292328 -3.198182106 0.799770534
v -3.937909842 -1.982182980 0.000000005
v -3.355935335 -2.740972042 -0.751476049
v -1.974254012 0.455475062 -3.671719074
v -3.250692606 0.099086672 -3.403421879
v 0.309684902 1.252099991 -5.026721954
v -0.866201758 0.815042078 -4.178518295
v -1.593084812 -1.493927836 -4.439810276
v -1.215207934 -0.307939053 -4.404237747
v -0.382288337 -1.195662618 -4.892117500
v 2.004285574 1.993242383 -3.145664930
v 1.557893634 1.734302402 -4.739257812
v 3.617639065 3.548170567 -0.878806412
v 2.804228544 2.715457439 -2.139876127
v 2.880053282 0.022523796 -3.014060974
v 2.851921558 1.221561074 -2.573109150
v 3.852172613 0.563034356 -2.164120436
v 2.463774443 -2.463749170 0.604277253
v 2.322130919 -2.313345432 1.796855927
v 1.745403409 -3.040297747 1.022014499
v 4.292529106 0.202248648 4.497104645
v 3.476527929 -1.485539198 3.135491371
v 4.974019051 -0.635808408 2.787484646
v 1.033020973 -2.682912111 3.544440031
v 1.904762268 -1.969386101 3.048989773
v 1.479703307 -1.701713562 4.584347725
v 0.750176966 -3.567661762 1.193536639
v 1.175849557 -3.936023951 0.000000004
v -0.263102114 -2.868371725 3.551215410
v 0.255063325 -3.113810062 2.325367928
v -1.543892503 -4.257354259 0.000000005
v -0.559626400 -3.679789543 1.218555808
v -1.976427197 -3.858919621 1.263962507
v 0.303536594 -3.765096903 -1.236631155
v 1.682118773 -3.998717070 -1.264693260
v -2.670776844 -3.780873537 -1.349507332
v -1.123147368 -3.802176237 -1.297944069
v -0.068547174 -3.037736177 -3.746129990
v -0.625444353 -3.403000355 -2.575273037
v -1.480645657 -2.779759169 -3.882973194
v 2.044962406 -3.119606018 -2.044825315
v 2.431403399 -2.787292719 -0.641471028
v 0.506498516 -2.219980717 -4.628981113
v 1.322637081 -3.066805601 -3.716743231
v 3.181807280 -1.372060657 -1.926162481
v 2.345899343 -2.034090996 -2.575127125
v 2.825325012 -1.208130598 -3.215667725
v 2.994884253 -1.949775815 0.000000004
v 4.361397266 -0.435079217 -1.516967654
v 3.452174187 -1.211710095 -0.677931368
v 4.310989380 -1.071731091 0.823120713
v 5.143680573 0.556039512 1.790594578
v 1.410398602 -0.382032901 5.133602619
v 2.841790438 0.949757397 5.429889202
v 1.089730501 1.375131845 6.164178848
v -2.369672298 -2.887208700 2.047579527
v -1.464117169 -2.382196426 3.111687660
v -2.793537617 -1.995646000 2.847307682
v -2.238881111 -1.819205403 -3.210337162
v -2.811312199 -2.222442865 -1.964544058
v -3.068539143 -1.029701948 -2.684386492
v 2.211620092 -0.524994731 -4.119267464
v 0.911001205 -0.936790526 -4.590775013
v 1.352363825 0.382067859 -4.937126637
v 4.892134190 1.793168664 0.965465486
v 4.383288860 1.045605063 -0.834991455
v 4.165519714 2.715205908 0.000000005
f 1 43 45
f 13 44 43
f 15 45 44
f 43 44 45
f 12 46 48
f 14 47 46
f 13 48 47
f 46 47 48
f 6 49 51
f 15 50 49
f 14 51 50
f 49 50 51
f 13 47 44
f 14 50 47
f 15 44 50
f 47 50 44
f 1 45 53
f 15 52 45
f 17 53 52
f 45 52 53
f 6 54 49
f 16 55 54
f 15 49 55
f 54 55 49
f 2 56 58
f 17 57 56
f 16 58 57
f 56 57 58
f 15 55 52
f 16 57 55
f 17 52 57
f 55 57 52
f 1 53 60
f 17 59 53
f 19 60 59
f 53 59 60
f 2 61 56
f 18 62 61
f 17 56 62
f 61 62 56
f 8 63 65
f 19 64 63
f 18 65 64
f 63 64 65
f 17 62 59
f 18 64 62
f 19 59 64
f 62 64 59
f 1 60 67
f 19 66 60
f 21 67 66
f 60 66 67
f 8 68 63
f 20 69 68
f 19 63 69
f 68 69 63
f 11 70 72
f 21 71 70
f 20 72 71
f 70 71 72
f 19 69 66
f 20 71 69
f 21 66 71
f 69 71 66
f 1 67 43
f 21 73 67
f 13 43 73
f 67 73 43
f 11 74 70
f 22 75 74
f 21 70 75
f 74 75 70
f 12 48 77
f 13 76 48
f 22 77 76
f 48 76 77
f 21 75 73
f 22 76 75
f 13 73 76
f 75 76 73
f 2 58 79
f 16 78 58
f 24 79 78
f 58 78 79
f 6 80 54
f 23 81 80
f 16 54 81
f 80 81 54
f 10 82 84
f 24 83 82
f 23 84 83
f 82 83 84
f 16 81 78
f 23 83 81
f 24 78 83
f 81 83 78
f 6 51 86
f 14 85 51
f 26 86 85
f 51 85 86
f 12 87 46
f 25 88 87
f 14 46 88
f 87 88 46
f 5 89 91
f 26 90 89
f 25 91 90
f 89 90 91
f 14 88 85
f 25 90 88
f 26 85 90
f 88 90 85
f 12 77 93
f 22 92 77
f 28 93 92
f 77 92 93
f 11 94 74
f 27 95 94
f 22 74 95
f 94 95 74
f 3 96 98
f 28 97 96
f 27 98 97
f 96 97 98
f 22 95 92
f 27 97 95
f 28 92 97
f 95 97 92
f 11 72 100
f 20 99 72
f 30 100 99
f 72 99 100
f 8 101 68
f 29 102 101
f 20 68 102
f 101 102 68
f 7 103 105
f 30 104 103
f 29 105 104
f 103 104 105
f 20 102 99
f 29 104 102
f 30 99 104
f 102 104 99
f 8 65 107
f 18 106 65
f 32 107 106
f 65 106 107
f 2 108 61
f 31 109 108
f 18 61 109
f 108 109 61
f 9 110 112
f 32 111 110
f 31 112 111
f 110 111 112
f 18 109 106
f 31 111 109
f 32 106 111
f 109 111 106
f 4 113 115
f 33 114 113
f 35 115 114
f 113 114 115
f 10 116 118
f 34 117 116
f 33 118 117
f 116 117 118
f 5 119 121
f 35 120 119
f 34 121 120
f 119 120 121
f 33 117 114
f 34 120 117
f 35 114 120
f 117 120 114
f 4 115 123
f 35 122 115
f 37 123 122
f 115 122 123
f 5 124 119
f 36 125 124
f 35 119 125
f 124 125 119
f 3 126 128
f 37 127 126
f 36 128 127
f 126 127 128
f 35 125 122
f 36 127 125
f 37 122 127
f 125 127 122
f 4 123 130
f 37 129 123
f 39 130 129
f 123 129 130
f 3 131 126
f 38 132 131
f 37 126 132
f 131 132 126
f 7 133 135
f 39 134 133
f 38 135 134
f 133 134 135
f 37 132 129
f 38 134 132
f 39 129 134
f 132 134 129
f 4 130 137
f 39 136 130
f 41 137 136
f 130 136 137
f 7 138 133
f 40 139 138
f 39 133 139
f 138 139 133
f 9 140 142
f 41 141 140
f 40 142 141
f 140 141 142
f 39 139 136
f 40 141 139
f 41 136 141
f 139 141 136
f 4 137 113
f 41 143 137
f 33 113 143
f 137 143 113
f 9 144 140
f 42 145 144
f 41 140 145
f 144 145 140
f 10 118 147
f 33 146 118
f 42 147 146
f 118 146 147
f 41 145 143
f 42 146 145
f 33 143 146
f 145 146 143
f 5 121 89
f 34 148 121
f 26 89 148
f 121 148 89
f 10 84 116
f 23 149 84
f 34 116 149
f 84 149 116
f 6 86 80
f 26 150 86
f 23 80 150
f 86 150 80
f 34 149 148
f 23 150 149
f 26 148 150
f 149 150 148
f 3 128 96
f 36 151 128
f 28 96 151
f 128 151 96
f 5 91 124
f 25 152 91
f 36 124 152
f 91 152 124
f 12 93 87
f 28 153 93
f 25 87 153
f 93 153 87
f 36 152 151
f 25 153 152
f 28 151 153
f 152 153 151
f 7 135 103
f 38 154 135
f 30 103 154
f 135 154 103
f 3 98 131
f 27 155 98
f 38 131 155
f 98 155 131
f 11 100 94
f 30 156 100
f 27 94 156
f 100 156 94
f 38 155 154
f 27 156 155
f 30 154 156
f 155 156 154
f 9 142 110
f 40 157 142
f 32 110 157
f 142 157 110
f 7 105 138
f 29 158 105
f 40 138 158
f 105 158 138
f 8 107 101
f 32 159 107
f 29 101 159
f 107 159 101
f 40 158 157
f 29 159 158
f 32 157 159
f 158 159 157
f 10 147 82
f 42 160 147
f 24 82 160
f 147 160 82
f 9 112 144
f 31 161 112
f 42 144 161
f 112 161 144
f 2 79 108
f 24 162 79
f 31 108 162
f 79 162 108
f 42 161 160
f 31 162 161
f 24 160 162
f 161 162 160
